<svg xmlns="http://www.w3.org/2000/svg" viewBox="0 0 72.91 73.41"><defs><style>.cls-1{fill:#f40000;}.cls-2{fill:#fff;}</style></defs><title>1Aux</title><g id="Capa_2" data-name="Capa 2"><g id="Capa_2-2" data-name="Capa 2"><path class="cls-1" d="M.09,36.21C.09,26.45.24,16.68,0,6.93-.08,2.35,1.07,0,6.24,0q30,.26,60.07,0c4.89,0,6.63,2,6.6,6.71q-.19,30,0,60.06c0,4.9-2,6.64-6.74,6.61-19.77-.12-39.54-.16-59.31,0-5.29,0-7-2.06-6.85-7.17C.29,56.23.09,46.22.09,36.21Zm43.71-24H29.07V29.62H11.72V44.17H29.27V61.31H43.92V43.77H61.37V29.46H43.8Z"/><path class="cls-2" d="M43.8,12.17V29.46H61.37V43.77H43.92V61.31H29.27V44.17H11.72V29.62H29.07V12.17Z"/></g></g></svg>