<svg xmlns="http://www.w3.org/2000/svg" viewBox="0 0 55.43 52.2"><defs><style>.cls-1{fill:#87502b;}.cls-2{fill:#fff;}</style></defs><title>AlimentacionInd</title><g id="Capa_2" data-name="Capa 2"><g id="Capa_3" data-name="Capa 3"><path class="cls-1" d="M21.61,13.07c4.43,0,6.7,2.87,6.16,6.31-.5,3.23-2.31,5.71-4.28,8.13A32.19,32.19,0,0,0,19,33.87c-2.3,4.9-3.23,9.68,1.13,14.1.8.81,2.19,1.94,1.31,3.15a2.89,2.89,0,0,1-4.07.44c-2.24-1.86-4.11-.19-6.15.12-1.22.19-2.76.53-3.53-.49s.51-2.06,1.2-2.8c1.26-1.35.41-1.72-.68-2.4C1.84,42-1,36.27.31,28.86s6.16-11.6,13.38-13.27C16.67,14.9,19.14,12.39,21.61,13.07Z"/><path class="cls-1" d="M45,38.06c-2.5,0-5,0-7.49,0-.54,0-1.34.23-1.48-.67s.51-1.29,1.3-1.46c.24,0,.5,0,.74-.08C43.8,35,43.8,35,43.8,29.2a40.43,40.43,0,0,1,0-4.12c.28-2.52-.35-4-3.15-4.75-3.17-.86-4.66-3.55-4.94-6.81-.09-1.11,0-2.24,0-3.37C35.86,1.22,37.08,0,45.79,0c8,0,8.8.75,9.49,8.9.61,7.15-.44,9.09-7,12.07-1.3.59-1.16,1.42-1.17,2.38,0,3.25.12,6.5,0,9.74-.12,2.26.86,2.85,2.87,2.67a20,20,0,0,1,3,.09c.9.06,1.86.2,1.73,1.42s-1.09.77-1.75.78C50.29,38.08,47.66,38.06,45,38.06Z"/><path class="cls-1" d="M29.92,23.07c4.88,8.14,2.6,17.94-5,22.61-1.6,1-2.76,1.34-3.85-.68-.9-1.68-1.58-2.82.75-4.09,3.54-1.93,5.63-5.27,5-9.26C26.31,28.12,27.58,25.71,29.92,23.07Z"/><path class="cls-2" d="M13.08,42c-8.75-4.3-9.95-12.69-2.64-19.3C9.24,29.66,11.08,35.5,13.08,42Z"/><path class="cls-2" d="M21.29,18.64a1.65,1.65,0,0,1-1.82,1.44,1.5,1.5,0,0,1-1.6-1.64,1.65,1.65,0,0,1,2-1.68C20.79,16.88,21.22,17.68,21.29,18.64Z"/><path class="cls-2" d="M38.05,10.36c-.61-3.25,1.18-4.53,4.9-4a19,19,0,0,0,5.59,0c3.81-.65,4.35,1.52,4.44,4.47.15,5.5-2.06,7.93-7.41,8S37.91,16.56,38.05,10.36Z"/></g></g></svg>