<svg xmlns="http://www.w3.org/2000/svg" viewBox="0 0 62.65 77.15"><defs><style>.cls-1{fill:#87502b;}</style></defs><title>Almacen</title><g id="Capa_2" data-name="Capa 2"><g id="Capa_2-2" data-name="Capa 2"><path class="cls-1" d="M2.63,24.4H60.05c.76,11.55,1.53,23,2.26,34.5.16,2.55.19,5.11.26,7.66.3,10.58.3,10.58-10.68,10.58q-22.12,0-44.25,0c-7.73,0-7.91,0-7.53-8C.82,54.44,1.75,39.77,2.63,24.4Z"/><path class="cls-1" d="M47.81,19.74H39.47c-2.54-3.79-.31-12-9.53-10.58-7,1-3.67,7.31-6.74,10.52H15.48C16,5.58,19.22.66,28.28.15,42.82-.66,44.76,1.23,47.81,19.74Z"/></g></g></svg>