<svg xmlns="http://www.w3.org/2000/svg" viewBox="0 0 63.23 72.14"><title>APR</title><g id="Capa_2" data-name="Capa 2"><g id="Capa_3" data-name="Capa 3"><path d="M50.63,29.76H43.24c-.1-1.39-.12-2.53-.26-3.66-.51-4-3.47-5.4-6.72-3.19-4.54,3.09-12.93,3-17.69.05A9.83,9.83,0,0,0,13.86,22c-4.5-.12-9,0-13.86,0V13.74l24.64-2.22V5.31a50.62,50.62,0,0,1-7-.1c-1-.15-1.86-1.4-2.79-2.15.87-.85,1.66-2.35,2.6-2.44a82.29,82.29,0,0,1,19.9,0C38.28.72,39,2.17,39.83,3c-.89.77-1.71,2.05-2.69,2.2a50.88,50.88,0,0,1-7.13.1v5.31c4.06.94,8.19,1.82,12.27,2.86C49.12,15.23,51.55,19.9,50.63,29.76Z"/><path d="M59.05,72.14H38C36.6,59.89,35.17,47.7,33.69,35.08H63.23C61.83,47.56,60.45,59.76,59.05,72.14Zm-2.2-11c.8-7.75,1.57-15.15,2.37-22.94H37.66c.41,3.44.84,6.24,1.06,9,1.16,15.19,1.14,15.19,16.39,14.32A11,11,0,0,0,56.85,61.12Z"/><path d="M48.81,42.71c1,2.39,2.31,4.72,2.82,7.21a5.8,5.8,0,0,1-1.51,4.29,3.52,3.52,0,0,1-3.48.19c-1-1-2-2.83-1.74-4.1.48-2.63,1.75-5.12,2.7-7.66Z"/></g></g></svg>