<svg xmlns="http://www.w3.org/2000/svg" viewBox="0 0 54.71 58"><defs><style>.cls-1{fill:#87502b;}.cls-2{fill:#fff;}</style></defs><title>Artesania</title><g id="Capa_2" data-name="Capa 2"><g id="Capa_2-2" data-name="Capa 2"><path class="cls-1" d="M9.92,19.32C5.59,16.2,2.84,12.45,5,6.78,7,1.45,11.14.1,16.43.24c7.66.22,15.33,0,23,.13,1.9,0,4.65-1.37,5.63,1,.84,2.05-1.77,3.11-3,4.44-1.47,1.57-2.64,3.07-2.74,5.42-.19,4.13,0,7.13,4.86,9.34,8.66,3.93,11.77,11.24,10.12,21C52,38.87,50.16,36.35,48,34.14c-4.23-4.37-7.69-4.29-11.61.25A56.19,56.19,0,0,0,31.77,41c-2.42,3.77-4.71,4.06-7.32.15a69,69,0,0,0-5.52-7.31C15.55,29.92,12,30.14,8.77,34c-2.41,2.86-4.69,5.83-7.22,9C-1.78,33.93-.07,29.32,9.92,19.32Z"/><path class="cls-1" d="M25.33,57.63c-6.72,1.15-14.22-.17-20-7.21C3.76,48.48,3.07,47,5,45.11a2.61,2.61,0,0,0,.34-.46c7.89-11.43,8-11.43,15.89-.23,4.44,6.29,9,6.32,13.57.08.22-.31.4-.66.64-1,2.16-2.7,2.89-7.8,7.22-7.1,4.71.76,5.78,6.19,8.4,9.6,1.32,1.71-.49,2.74-1.46,3.75-4.75,5-10,8.92-17.46,7.87A60.24,60.24,0,0,0,25.33,57.63Z"/><path class="cls-2" d="M14.75,14.08c-2.44-.28-3.85-1.42-4.11-3.58a3.3,3.3,0,0,1,3.16-4A3.45,3.45,0,0,1,18,10.13C18,12.39,16.38,13.38,14.75,14.08Z"/></g></g></svg>