<svg xmlns="http://www.w3.org/2000/svg" viewBox="0 0 100.52 53.34"><defs><style>.cls-1{fill:#fff;}</style></defs><title>bus</title><g id="Capa_2" data-name="Capa 2"><g id="Capa_3" data-name="Capa 3"><path d="M48.25.08C61.79.08,75.34.21,88.88,0c4.52-.07,7.27,1.21,8.05,6,1.83,11.1,4.3,22.09,3.4,33.5-.33,4.19-1.66,6.89-6.14,7.39-3.92.44-6.59.12-7.59-4.93S81,34.15,75.93,34.08C70.55,34,66,36.74,64.81,42.18c-1,4.36-3.22,5-6.94,4.75a80.71,80.71,0,0,0-8.8,0c-5.71.17-11.2,1.09-13.12-7-1-4.21-5.87-6.17-10.51-5.75A11.46,11.46,0,0,0,15,42.42c-.67,2-.62,5.64-3.65,4.17C7.48,44.73.62,46.18.31,40-.29,28,.18,16,.11,4.07c0-4.73,3.34-4,6.15-4C20.26.05,34.25.08,48.25.08Z"/><path d="M83.11,45.77c-.29,4.92-3,7.57-7.31,7.54-4.58,0-7.7-2.77-7.53-7.67s3.19-7.35,8-7.1C80.8,38.77,83,41.63,83.11,45.77Z"/><path d="M18.8,45.65c.35-4.51,2.77-7.12,7.3-7.12,4.82,0,7.59,2.73,7.54,7.56,0,4.57-3.13,7.22-7.29,7.25C21.83,53.37,18.85,50.66,18.8,45.65Z"/><path class="cls-1" d="M47.69,14.12c0,10.82,0,10.82-8.2,10.82S32,24.87,31.06,14.13c-.79-8.64,3.91-7.3,9.39-7.92C48.85,5.26,48.13,10.14,47.69,14.12Z"/><path class="cls-1" d="M7.94,14.79c.82-2.34-1.9-6.95,1.38-8,4.08-1.28,8.91-.34,13.4-.1,1.36.07,1.21,1.65,1.23,2.74,0,1.58,0,3.16,0,4.74C24,25.45,22,27,10.74,25c-1.93-.33-2.84-1-2.81-2.9C8,19.86,7.94,17.6,7.94,14.79Z"/><path class="cls-1" d="M70.93,15.84c-.49,2.52,1.54,7.21-1,8.28-3.66,1.52-8.34.76-12.58.7-2.25,0-1.92-2.05-1.95-3.57,0-2.7.33-5.46-.08-8.09-.9-5.75,1.37-7.2,6.92-6.88C70.91,6.78,70.93,6.4,70.93,15.84Z"/><path class="cls-1" d="M79.06,16.18c-1-6.44-1.23-11.28,7-9.9,3.58.61,5.3,1.75,5.07,5.43a16.89,16.89,0,0,0,.32,4c1.88,10.39,2,9.07-8.16,9.24C74.49,25.1,80.72,18.25,79.06,16.18Z"/></g></g></svg>