<svg xmlns="http://www.w3.org/2000/svg" viewBox="0 0 46.39 64.95"><defs><style>.cls-1{fill:#87502b;}.cls-2{fill:#fff;}</style></defs><title>Caja Vecina</title><g id="Capa_2" data-name="Capa 2"><g id="Capa_2-2" data-name="Capa 2"><path class="cls-1" d="M11.35,19.1c0,3.22,0,6.45,0,9.67,0,1.12-.57,2.84,1.38,2.88,1.41,0,3.23,1,4.12-1.26,1-2.62,2.87-4.2,5.85-3.08s3,3.69,3.07,6.27c.06,6.74-.79,13.59,3.1,19.77A7.78,7.78,0,0,1,29.53,57c.29,7.16-.48,8-7.48,8-11.35,0-11-.15-15.19-11-2.62-6.71-3.17-13-.8-19.69,2.86-8.13,2-16.59,2.06-25,0-1.44-.8-3.66,1.66-3.63s1.44,2.4,1.52,3.74C11.47,12.64,11.35,15.87,11.35,19.1Z"/><path class="cls-1" d="M40.41,7.72c2.11-.15,2.65-1.41,2.3-3.28s-1.93-1.21-3-1.22Q23,3.14,6.38,3.21c-.94,0-2.36-.47-2.45,1.15C3.87,5.44,3.17,6.92,5,7.41c.84.23,2.47-.44,1.92,1.5-.42,1.43-1.57,1.81-3,1.73C2.74,10.57,1.5,10.8.79,9.31-1.45,4.6,1.27.16,6.48.15,17.94.14,29.42.46,40.87,0c5.46-.21,5.47,2.4,5.52,6.44.07,5-2.79,4.46-6,3.92A1.68,1.68,0,0,1,40.41,7.72Z"/><path class="cls-1" d="M40.41,7.72v2.65c-2.68,3.28-.77,7.11-1.21,10.66a55.67,55.67,0,0,0-.06,7c0,8-.56,8.46-8.34,7.42-1-.14-2.19.12-2.27-1.5s.55-2.5,2.13-2.22c4.63.82,4.69-2,4.59-5.32-.18-5.72-.13-11.44,0-17.15,0-1.55-1.09-3.66,1.6-4.44S38.56,7.57,40.41,7.72Z"/><path class="cls-1" d="M23.09,16.89c-4.84-2.73-4.78-3.66-1.66-7.62,1.76-2.23,2.09-1.46,3.67,0,1.94,1.73,2,2.59-.37,3.56-.45.18-1.67-.06-.76,1,.27.32,1.1.1,1.49.39,2.42,1.81,2.26,3.69.17,5.74-1.61,1.57-3,2.74-5,.44-.63-.72-1.23-1.26-1-2.16C20.15,16.33,22.32,18.41,23.09,16.89Z"/><path class="cls-1" d="M32.83,44.57c-2.41.1-4.57.46-4.41-3.33.13-2.93,1.08-3.76,3.77-3.45,2.51.28,5.89-.81,6,3.34C38.3,44.91,35.19,44.33,32.83,44.57Z"/><path class="cls-1" d="M29.48,47.53c2.59.66,6.07-2.41,7.34,1.66.49,1.55-1,3-2.68,3.33C30.13,53.39,30.56,49.74,29.48,47.53Z"/><path class="cls-2" d="M10.56,35.6c6.35-.4,7.49,1,6.3,6.85-.24,1.21-.65,2.11-1.88,2.06s-1.48-1.15-1.62-2.31C12.81,37.57,12.51,36.91,10.56,35.6Z"/></g></g></svg>