<svg xmlns="http://www.w3.org/2000/svg" viewBox="0 0 66.63 32.75"><defs><style>.cls-1{fill:#87502b;}</style></defs><title>Camping</title><g id="Capa_2" data-name="Capa 2"><g id="Capa_3" data-name="Capa 3"><path class="cls-1" d="M48.42,31.59c-2.93-6.08-5.87-12.15-9.1-18.85L30.59,31.61c-7.5,1.23-15,.26-22.58.49-1.25,0-2-.61-1.69-2.05C10,23.18,13.23,16,17.47,9.5,26.05-3.66,42-3,49.87,10.6c3.7,6.43,7,13.1,10.45,19.66.31,1.53-.69,1.92-1.84,1.85C55.13,31.91,51.72,32.79,48.42,31.59Z"/><path class="cls-1" d="M6.32,30.05c1.34,2.15,3.51,1.45,5.39,1.48,6.29.09,12.59.06,18.88.08-9.1,2-18.3.51-27.45.76-1.48,0-4-7-2.87-7.91,1.35-1.16,2.39-.61,3.4.95S3.15,29.87,6.32,30.05Z"/><path class="cls-1" d="M48.42,31.59c3.93-.75,8.18,1.35,11.9-1.33,1.73-.85,1.88-2.55,2.13-4.14.3-1.85,1.36-2.57,3.06-2.1,2.2.61.5,2,.44,3-.23,4.57-2.54,6.35-7.06,5.53C55.44,31.93,51.76,33.6,48.42,31.59Z"/></g></g></svg>