<svg xmlns="http://www.w3.org/2000/svg" viewBox="0 0 63.78 62.02"><defs><style>.cls-1{fill:#1f5117;}.cls-2{fill:#fff;}</style></defs><title>Carabineros</title><g id="Capa_2" data-name="Capa 2"><g id="Capa_2-2" data-name="Capa 2"><path class="cls-1" d="M31.37,62c-3.85-.78-8.77-2.33-13.77-2.66C3.4,58.41-4,47,2.23,34.11,5.82,26.65,8.68,20.19,1.7,13,.75,12,3.3,7.35,4.6,4.57,6.19,1.16,8.66-.27,12.9,0c10.78.81,21.6.87,32.41,1.2a16.63,16.63,0,0,0,2.9-.19c8.29-1.14,11.1.27,14.44,8.08a5.73,5.73,0,0,1-.84,5c-5,5.44-4.68,10.83-1.35,17a27.25,27.25,0,0,1,3.28,10.91c.59,10-5.62,16.25-15.6,17.21C42.73,59.8,37.4,61,31.37,62Zm3.79-31.47L51.59,16.44l-.88-1.16L32.12,28.09,13.46,15.28l-.82,1.25L29,30.48,11.93,42.68l4.29,5.86c3-3.62,5.37-7,8.24-9.74,7.63-7.41,7.54-7.4,15.11-.18,3,2.86,5.47,6.29,8.56,9.9l4-6Z"/><path class="cls-2" d="M35.16,30.55l17,12-4,6c-3.09-3.61-5.56-7-8.56-9.9-7.57-7.22-7.48-7.23-15.11.18-2.87,2.78-5.21,6.12-8.24,9.74l-4.29-5.86L29,30.48,12.64,16.53l.82-1.25L32.12,28.09,50.71,15.28l.88,1.16Z"/></g></g></svg>