<svg xmlns="http://www.w3.org/2000/svg" viewBox="0 0 93.73 60.02"><defs><style>.cls-1{fill:#87502b;}.cls-2{fill:#fff;}</style></defs><title>deportivo</title><g id="Capa_2" data-name="Capa 2"><g id="Capa_3" data-name="Capa 3"><path class="cls-1" d="M46.44,60c-5.83,0-11.66.16-17.49,0C11.92,59.36-.2,46.58,0,29.58.2,13,12.49.45,29.25.15Q47-.16,64.85.15C80.77.4,93,11.69,93.68,26.36c.83,19.09-8.64,31.48-26,33.22-7,.7-14.13.11-21.21.11Zm21.5-19.49V19.64l6.62-.52V13.5H48.41c-.67,4.17-1.13,7.24,3.26,9.78,4.77,2.78,4.94,10.4.26,13.32-4.44,2.76-4.31,5.85-3.51,10.06h26.5l-.33-5.79ZM44.53,46.75c.52-6.1.52-6.1-3.87-10s-4.57-10.55.39-13.36c4.66-2.65,4-5.9,3.56-9.93H19.31l.27,5.72,6.68.53V40.4L19.61,41v5.79Zm2-24.66c-2.58,3.51-5.38,5.64-5.29,7.65s3,4,4.68,6c2.12-1.88,5.4-3.48,6-5.76C52.34,28.31,49.2,25.75,46.56,22.09ZM23.64,39c0-5.89.11-10-.1-14,0-.83-1.28-1.59-2-2.39-.78.77-2.16,1.49-2.22,2.3a61.35,61.35,0,0,0,.06,10.5C19.51,36.34,21.32,37.1,23.64,39Zm50.9,0V22.81L73,22.09c-.84,1.32-2.51,2.74-2.36,3.94C71.11,29.9,68.42,34.75,74.54,39Z"/><path class="cls-2" d="M67.94,40.47l6.65.4.33,5.79H48.42c-.8-4.21-.93-7.3,3.51-10.06,4.68-2.92,4.51-10.54-.26-13.32-4.39-2.54-3.93-5.61-3.26-9.78H74.56v5.62l-6.62.52Z"/><path class="cls-2" d="M44.53,46.75H19.61V41l6.65-.56V19.68l-6.68-.53-.27-5.72h25.3c.45,4,1.1,7.28-3.56,9.93-5,2.81-4.7,9.51-.39,13.36S45.05,40.65,44.53,46.75Z"/><path class="cls-2" d="M46.56,22.09c2.64,3.66,5.78,6.22,5.36,7.87-.57,2.28-3.85,3.88-6,5.76-1.68-2-4.58-3.92-4.68-6S44,25.6,46.56,22.09Z"/><path class="cls-2" d="M23.64,39c-2.32-1.91-4.13-2.67-4.23-3.62a61.35,61.35,0,0,1-.06-10.5c.06-.81,1.44-1.53,2.22-2.3.69.8,1.93,1.56,2,2.39C23.75,29,23.64,33.12,23.64,39Z"/><path class="cls-2" d="M74.54,39c-6.12-4.21-3.43-9.06-3.9-12.93-.15-1.2,1.52-2.62,2.36-3.94l1.54.72Z"/></g></g></svg>