<svg xmlns="http://www.w3.org/2000/svg" viewBox="0 0 83.5 73.07"><defs><style>.cls-1{fill:#87502b;}</style></defs><title>HRural</title><g id="Capa_2" data-name="Capa 2"><g id="Capa_3" data-name="Capa 3"><path class="cls-1" d="M15.48,68.78C13,76,7.08,71.8,2.86,72.22c-4.61.45-2.21-4-2.42-6.17C0,61.86-1.1,57.59,6.35,57.34c4.48-.15,6.7-5.67,6.71-11.38,5.1,7.17,8.54,7.57,13.79,2.34,1.74,2,1.95,4.71.43,6.11-2.86,2.62-1.35,5.29-1.07,8,.27,2.53,2.08,5.08-1.83,6.76s-4.51-1.59-6.24-3.3C15.14,64.91,16.44,67.87,15.48,68.78Z"/><path class="cls-1" d="M44.94,41.31c-3.31.75-5.73,3.08-8.5,4.78l.14-.14c-2-.38-4.43,4-6.09-.23-1.34-3.38,2.2-3.39,3.84-4.38,5-3,10.44-5.46,15.32-8.68s9.19-4.11,14-.12c2.88,2.4,5.67,3.14,6.16-2.1.3-3.17,2.71-2.36,4.62-2.48,2.62-.17,2.17,1.83,2.11,3.27-.2,5-.61,10,5.86,11.75,1.35.36,1.3,1.76.72,2.83S81.67,48.08,80,47.14c-1.16-.65-2.42-1.11-3.64-1.66-.32.49-.68.5-1.07.09-1.42-2.6-4.1-3.26-6.57-4.25A15,15,0,0,1,61,38.44c-2.8-2.22-5.6-2.17-8.4,0A15.24,15.24,0,0,1,44.94,41.31Z"/><path class="cls-1" d="M51.76,9.72c0,2,0,4.07,0,6.1S51.56,19.4,49,19.41c-2.14,0-3.54-.54-3.41-3s.12-4.3-3.35-4.4c-3.83-.12-3.95,1.93-3.74,4.64.16,2-.82,2.76-2.82,2.76-1.84,0-3.18-.44-3.2-2.49-.07-4.75,0-9.49,0-14.23,0-2.12,1.15-2.65,3-2.7s3.14.27,3.07,2.48S38.11,7,41.72,6.9c3-.06,4.13-1,3.84-3.94C45.3.45,46.9,0,49,0c2.55,0,2.85,1.61,2.8,3.61S51.76,7.69,51.76,9.72Z"/><path class="cls-1" d="M36.44,46.09c3.86-1.19,7.83-.22,11.74-.55,2.17-.19,2.76,1,2.5,2.85-.22,1.54.93,3.88-2.07,3.93a79.29,79.29,0,0,1-9.38,0c-4.44-.45-.8-4.6-2.63-6.33Z"/><path class="cls-1" d="M75.27,45.57a4.26,4.26,0,0,0,1.07-.09c-.19,2.29,1.7,5.8-1,6.56-3.53,1-7.59.57-11.34.07-1.89-.25-.84-2.66-1-4.11-.3-2.24,1.11-2.51,2.89-2.47C69,45.6,72.13,45.56,75.27,45.57Z"/><path class="cls-1" d="M44.26,56.13c2.27,1.35,6.45-2.08,6.47,3.44,0,7-5.14,2.88-7.8,3.46-2.07.45-6.15,2.15-5.91-3.27C37.3,53.25,42.26,58.13,44.26,56.13Z"/><path class="cls-1" d="M69.34,63.57c-2.22-1.41-6.42,2.05-6.43-3.47,0-7,5.13-2.9,7.78-3.46,2.07-.44,6.15-2.16,5.92,3.26C76.34,66.42,71.38,61.55,69.34,63.57Z"/><path class="cls-1" d="M43.68,73c-2.69-1-7.19,2-6.62-3.94.59-6.06,5.13-2.36,7.7-2.86,2.05-.4,6.13-2.24,6,3.19C50.58,75.92,45.58,71.11,43.68,73Z"/><path class="cls-1" d="M69.37,73.06c-2.27-1.34-6.45,2.09-6.47-3.43,0-7,5.15-2.89,7.8-3.46,2.07-.45,6.15-2.15,5.91,3.27C76.34,76,71.37,71.07,69.37,73.06Z"/><path class="cls-1" d="M65.64,42.81H48c-.38-3.76,3.47-3.32,5.08-5.1a5.93,5.93,0,0,1,7.47,0C62.16,39.49,66,39,65.64,42.81Z"/><path class="cls-1" d="M53.36,38.56C52,40.46,48.82,40.18,48,42.81l-3.05-1.5a19,19,0,0,1,7-4C53.39,36.6,53.55,37.39,53.36,38.56Z"/><path class="cls-1" d="M65.64,42.81c-.82-2.63-4-2.35-5.37-4.24-.18-1.18,0-2,1.44-1.27a18.83,18.83,0,0,1,7,4Z"/><path class="cls-1" d="M15.48,68.78l.4-4.92a2.59,2.59,0,0,1,2.26,2Z"/><path class="cls-1" d="M61.71,37.3l-1.44,1.27a7.19,7.19,0,0,0-6.91,0L51.92,37.3Q56.83,32.11,61.71,37.3Z"/></g></g></svg>