<svg xmlns="http://www.w3.org/2000/svg" viewBox="0 0 74.45 76.94"><defs><style>.cls-1{fill:#87502b;}.cls-2{fill:#fff;}</style></defs><title>Iglesia</title><g id="Capa_2" data-name="Capa 2"><g id="Capa_2-2" data-name="Capa 2"><path class="cls-1" d="M0,56.28c6.62-6.39,13.19-12.83,19.88-19.15C22.11,35,24,32.9,23.34,29.56c-1.11-5.74,1.86-9.06,6.37-12.09,5.89-3.95,5.34-4,1.71-10.1C29.3,3.82,36.47,4,35.69.06c0-.24,2.12.26,3.07,2,1.54,2.76,5.25,4.46.08,7.71-1.56,1-.19,4.94,2.69,6.59,5.58,3.21,9.64,7.36,8,14.64-.67,2.93,1.64,4.48,3.4,6.21C59.5,43.65,66.1,50.11,74.45,58.31c-9.26-1.85-8.77,2.66-8.69,7.38.19,11,.06,11-11.06,11-9.44,0-9.4,0-9.6-9.72a25.44,25.44,0,0,0-.78-6.7c-1.13-3.82-3.74-6-8-6.07-4,0-6.28,2.18-7.63,5.59a16.23,16.23,0,0,0-.81,3.94c-.54,4.19,1.93,10.9-1.1,12.1-5.11,2-11.55.74-17.43.81C7.14,76.63,7,75,7,73.34a86.15,86.15,0,0,1,.05-9.51c.54-4.71-1.25-6.7-6.32-5.72Z"/><path class="cls-2" d="M42,36.21c0,4.29-2,6.32-5.33,6.48s-5.76-1.76-5.94-5.21a5.51,5.51,0,0,1,5.73-6.2A5.14,5.14,0,0,1,42,36.21Z"/></g></g></svg>