<svg xmlns="http://www.w3.org/2000/svg" xmlns:xlink="http://www.w3.org/1999/xlink" version="1.1" x="0px" y="0px" viewBox="0 0 100 125" enable-background="new 0 0 100 100" xml:space="preserve"><path d="M9.021,29.616c-0.828-0.012-1.51,0.65-1.521,1.479c0,0.014,0,0.028,0,0.042v47.156c0,0.828,0.672,1.5,1.5,1.5h38.079  c0.046,0,0.093-0.001,0.139-0.005c0.827,0.054,1.54-0.573,1.594-1.4c0.002-0.032,0.003-0.064,0.003-0.096l-0.029-46.415  c0-0.468-0.219-0.909-0.591-1.192c-8.63-6.574-17.352-10.466-26.03-10.48l0,0c-2.003-0.003-4.003,0.2-5.999,0.625  c-0.693,0.147-1.188,0.76-1.188,1.468c0.01,15.807,0.02,31.613,0.029,47.419c0,0.829,0.672,1.5,1.501,1.499  c0.065,0,0.131-0.004,0.196-0.013c7.997-1.059,16.353,0.469,25.379,5.589H10.5V31.138C10.511,30.309,9.849,29.628,9.021,29.616z"/><path d="M51.214,31.878l-0.039,46.415c0,0.828,0.672,1.5,1.5,1.5c0.019,0,0.038,0,0.057-0.001c0.033,0.002,0.067,0.003,0.1,0.002H91  c0.828,0,1.5-0.672,1.5-1.5V31.138c0.012-0.828-0.65-1.51-1.479-1.521c-0.828-0.012-1.51,0.65-1.521,1.479c0,0.014,0,0.028,0,0.042  v45.656H57.908c9.027-5.12,17.391-6.648,25.378-5.59c0.821,0.109,1.575-0.469,1.684-1.29c0.009-0.065,0.013-0.13,0.013-0.196  c0.01-15.806,0.019-31.613,0.029-47.419c0-0.708-0.495-1.321-1.188-1.468c-1.996-0.424-3.997-0.628-6-0.625l0,0  c-8.678,0.014-17.398,3.906-26.021,10.48C51.433,30.97,51.214,31.41,51.214,31.878z"/><text x="0" y="115" fill="#000000" font-size="5px" font-weight="bold" font-family="'Helvetica Neue', Helvetica, Arial-Unicode, Arial, Sans-serif">Created by iconesia</text><text x="0" y="120" fill="#000000" font-size="5px" font-weight="bold" font-family="'Helvetica Neue', Helvetica, Arial-Unicode, Arial, Sans-serif">from the Noun Project</text></svg>