<svg xmlns="http://www.w3.org/2000/svg" viewBox="0 0 29.09 46.44"><defs><style>.cls-1{fill:#87502b;}</style></defs><title>Restauran</title><g id="Capa_2" data-name="Capa 2"><g id="Capa_3" data-name="Capa 3"><path class="cls-1" d="M2.6.2l.49,11.19,1.24.2L5.73,0l1.4.09L8.19,11.5l1.18,0L10.1.18l1.26,0a16.47,16.47,0,0,1,.94,3.28,89.4,89.4,0,0,1,.55,11.19c-.09,2-1.32,3.88-2,5.82S9,24.22,9.05,26.11c0,5.22.61,10.44.88,15.66.12,2.38-.15,4.55-3.4,4.67S2.74,44.8,2.89,42.16c.3-5.6.67-11.21.71-16.81,0-1.55-1-3.1-1.6-4.64-.7-1.93-2-3.84-2-5.78C-.07,10.06.39,5.17.64.29Z"/><path class="cls-1" d="M29.08,22.6q0,9.54,0,19.08c0,2.8-.57,5.11-4.13,4.71S21.75,43.56,22,41.07c.52-5,1.06-9.9,1.43-14.86a6,6,0,0,0-.83-3.43C19.27,17.54,21,5,25.78.92c.59-.49,2-1,2.23-.71a4,4,0,0,1,1,2.56C29.12,9.38,29.08,16,29.08,22.6Z"/></g></g></svg>