<svg xmlns="http://www.w3.org/2000/svg" viewBox="0 0 55.74 51.28"><title>Sede</title><g id="Capa_2" data-name="Capa 2"><g id="Capa_3" data-name="Capa 3"><path d="M28,20.69c-8.36,0-16.73,0-25.1,0-1.28,0-2.8.48-2.9-1.79-.1-2.5,1.54-2.07,3-2.09s2.75-.09,4.12,0c3.17.22,6.19.44,5.24-4.36-.32-1.65,1-1.67,2.19-1.67,8.87,0,17.74.09,26.6,0,2.28,0,2.52,1.08,2.23,2.71-.53,3,.87,3.64,3.52,3.38,2.11-.21,4.25,0,6.37-.05,1.3,0,2.45-.1,2.49,1.82s-1.11,2.12-2.63,2.11C44.74,20.67,36.37,20.69,28,20.69Z"/><path d="M27.79,51.15c-1,0-2,0-3,0-1.59-.06-3.62.69-3.37-2.34.21-2.43.35-4.54,3.57-4.42,1.86.07,3.73.09,5.59,0a2.9,2.9,0,0,1,3.23,2.42c.91,3.32.09,4.34-3.44,4.36Z"/><path d="M11.93,51.15c-.75,0-1.5,0-2.24,0-1.85,0-4,.74-3.77-2.7.2-2.69.72-4.36,3.82-4.07a20.91,20.91,0,0,0,4.11,0c3.66-.39,4.47,1.56,4.37,4.73,0,1.7-.63,2.17-2.18,2.07C14.67,51.07,13.3,51.15,11.93,51.15Z"/><path d="M43.06,51.15c-.74,0-1.49,0-2.24,0-1.68-.09-3.88.81-3.63-2.48.2-2.53.47-4.49,3.68-4.29a45.8,45.8,0,0,0,5.24,0c2.44-.13,3.16,1.08,3.37,3.37.24,2.77-.58,3.91-3.43,3.42A18.63,18.63,0,0,0,43.06,51.15Z"/><path d="M31.06,39.8c-.23,1.88-1.17,3.13-3.33,3.11-2.35,0-3.42-1.36-3.31-3.57a3,3,0,0,1,3.46-3.08C29.88,36.36,31,37.6,31.06,39.8Z"/><path d="M15.32,39.65A3,3,0,0,1,12,42.91a3,3,0,0,1-3.37-3.15,3.09,3.09,0,0,1,3.45-3.5C14.12,36.31,15.26,37.57,15.32,39.65Z"/><path d="M44,42.93c-2.55,0-3.8-1-3.87-3.15a3.09,3.09,0,0,1,3.42-3.52,3.08,3.08,0,0,1,3.23,3.36A3.06,3.06,0,0,1,44,42.93Z"/><path d="M21.69,9.9C20.31,9.3,18,11.08,18,7.76S20,5.36,21.74,5.28c1.9-.09,3.8-.34,3.68,2.65C25.29,11.22,22.84,9.12,21.69,9.9Z"/><path d="M34.3,9.69c-1.48-.45-3.76,1.06-3.68-2.2s2.26-2.29,3.93-2.36,3.53-.51,3.57,2.36C38.18,11.1,35.53,9,34.3,9.69Z"/><path d="M23.88,29.74c-.14,1.62-1.11,2.4-2.91,2.4a2.6,2.6,0,0,1-2.84-2.74,2.7,2.7,0,0,1,3.17-2.82C23,26.7,24,27.74,23.88,29.74Z"/><path d="M48.26,32.43a2.38,2.38,0,0,1-2.72-2.57,2.65,2.65,0,0,1,3-3,2.56,2.56,0,0,1,2.77,2.83C51.29,31.49,50.35,32.42,48.26,32.43Z"/><path d="M9.94,29.57c-.23,1.66-.89,2.8-2.78,2.85s-2.91-.66-3-2.47A2.62,2.62,0,0,1,7,26.84C8.72,26.81,9.62,27.93,9.94,29.57Z"/><path d="M37.9,29.45c-.32,1.43-.93,2.63-2.81,2.69s-2.83-.67-3-2.49A2.59,2.59,0,0,1,35,26.57C36.73,26.51,37.49,27.79,37.9,29.45Z"/><path d="M23.92,2.53c-.42,1.16-.94,2.06-2.35,2a1.85,1.85,0,0,1-2-2.1A2,2,0,0,1,21.93.26,2.29,2.29,0,0,1,23.92,2.53Z"/><path d="M34.2,0c1.32.28,2.28.86,2.31,2.14A2,2,0,0,1,34.2,4.32a1.92,1.92,0,0,1-2-2.14C32.21.83,33.29.42,34.2,0Z"/></g></g></svg>